<svg xmlns="http://www.w3.org/2000/svg" viewBox="0 0 1200 1450" width="1200" height="1450" dir="rtl">
  <defs>
    <style>
      text { font-family: Arial, sans-serif; }
      .title { font-size: 28px; font-weight: bold; fill: #222; }
      .subtitle { font-size: 18px; fill: #555; }
      .label { font-size: 14px; fill: #333; }
      .label-bold { font-size: 14px; fill: #333; font-weight: bold; }
      .dim { font-size: 13px; fill: #C0392B; }
      .dim-line { stroke: #C0392B; stroke-width: 1; stroke-dasharray: 4,3; }
      .dim-arrow { fill: #C0392B; }
      .wall { stroke: #555; stroke-width: 3; fill: none; }
      .module-odd { fill: #C8B896; stroke: #8B7D6B; stroke-width: 1.5; }
      .module-even { fill: #BBA97E; stroke: #8B7D6B; stroke-width: 1.5; }
      .wood-fill { fill: #D4A574; stroke: #A0845A; stroke-width: 1.5; }
      .structure { fill: #D4A574; stroke: #A0845A; stroke-width: 1.5; }
      .cushion-seat { fill: #C8B896; stroke: #8B7D6B; stroke-width: 1.5; }
      .cushion-back { fill: #BBAA82; stroke: #8B7D6B; stroke-width: 1.5; }
      .base { fill: #C0AF8D; stroke: #8B7D6B; stroke-width: 1.5; }
      .section-bg { fill: #FAFAFA; stroke: #DDD; stroke-width: 1; rx: 8; }
      .floor { stroke: #666; stroke-width: 2; stroke-dasharray: 8,4; }
      .table-circle { fill: #D4A574; stroke: #A0845A; stroke-width: 1.5; }
      .chair-rect { fill: #4A4A4A; stroke: #333; stroke-width: 1; }
      .plant { fill: #4A7C3F; stroke: #3A6530; stroke-width: 1; }
      .pot { fill: #8B5E3C; stroke: #6B4E2C; stroke-width: 1; }
      .view-label { font-size: 20px; font-weight: bold; fill: #444; }
    </style>
    <marker id="arrow-red" markerWidth="8" markerHeight="6" refX="8" refY="3" orient="auto">
      <polygon points="0,0 8,3 0,6" class="dim-arrow"/>
    </marker>
    <marker id="arrow-red-rev" markerWidth="8" markerHeight="6" refX="0" refY="3" orient="auto">
      <polygon points="8,0 0,3 8,6" class="dim-arrow"/>
    </marker>
  </defs>

  <!-- Background -->
  <rect width="1200" height="1450" fill="#FFFFFF"/>

  <!-- ===== TITLE ===== -->
  <text x="600" y="40" text-anchor="middle" class="title">Wave Sofa — Continuous Sinusoidal (Flipped)</text>
  <text x="600" y="65" text-anchor="middle" class="subtitle">Sky (Faux Leather) | Closed Base | 3 Concave Niches + 4 Peaks | ~433 cm</text>

  <!-- ===== TOP VIEW ===== -->
  <rect x="30" y="85" width="1140" height="360" class="section-bg"/>
  <text x="600" y="115" text-anchor="middle" class="view-label">Top View</text>

  <!-- Wall line -->
  <line x1="340" y1="140" x2="860" y2="140" class="wall"/>
  <text x="335" y="143" text-anchor="end" class="label">WALL</text>

  <!--
    Coordinates (1:1 scale, 1px = 1cm):
    Wall at y=140. Center at x=600.
    FLIPPED Wave: z_back(x) = 25 + 25*cos(2*pi*x/144.333)
    x: 0 to 433 cm. Left edge x=383.5, right edge x=816.5.
    Peaks at x_svg: 383.5, 527.8, 672.2, 816.5 (y=190, far from wall)
    Niches at x_svg: 455.7, 600.0, 744.3 (y=140, at wall)
  -->

  <!-- Curved wood fills between sofa back and wall (4 fills, drawn first behind sofa) -->
  <!-- Fill 1: left edge (383.5) to niche 1 (455.7) -->
  <path d="M 383.5,140 L 455.7,140 L 455.7,140.0 L 453.2,140.1 L 450.7,140.6 L 448.2,141.3 L 445.7,142.3 L 443.3,143.5 L 440.8,145.1 L 438.3,146.8 L 435.8,148.8 L 433.3,150.9 L 430.8,153.3 L 428.3,155.7 L 425.8,158.3 L 423.3,161.0 L 420.8,163.7 L 418.4,166.3 L 415.9,169.0 L 413.4,171.6 L 410.9,174.2 L 408.4,176.7 L 405.9,179.0 L 403.4,181.2 L 400.9,183.2 L 398.4,184.9 L 395.9,186.4 L 393.5,187.7 L 391.0,188.7 L 388.5,189.4 L 386.0,189.9 L 383.5,190.0 Z" class="wood-fill"/>
  <!-- Fill 2: niche 1 (455.7) to niche 2 (600.0), peak at 527.8 -->
  <path d="M 455.7,140 L 600.0,140 L 600.0,140.0 L 595.0,140.6 L 590.0,142.3 L 585.1,145.1 L 580.1,148.8 L 575.1,153.3 L 570.1,158.4 L 565.2,163.6 L 560.2,169.0 L 555.2,174.3 L 550.2,179.1 L 545.3,183.1 L 540.3,186.4 L 535.3,188.7 L 530.3,189.9 L 525.4,189.9 L 520.4,188.7 L 515.4,186.4 L 510.4,183.1 L 505.5,179.1 L 500.5,174.3 L 495.5,169.1 L 490.5,163.6 L 485.6,158.4 L 480.6,153.3 L 475.6,148.8 L 470.6,145.1 L 465.7,142.3 L 460.7,140.6 L 455.7,140.0 Z" class="wood-fill"/>
  <!-- Fill 3: niche 2 (600.0) to niche 3 (744.3), peak at 672.2 -->
  <path d="M 600.0,140 L 744.3,140 L 744.3,140.0 L 739.3,140.6 L 734.3,142.3 L 729.4,145.1 L 724.4,148.8 L 719.4,153.3 L 714.4,158.4 L 709.5,163.6 L 704.5,169.1 L 699.5,174.3 L 694.5,179.1 L 689.6,183.1 L 684.6,186.4 L 679.6,188.7 L 674.6,189.9 L 669.7,189.9 L 664.7,188.7 L 659.7,186.4 L 654.7,183.1 L 649.8,179.1 L 644.8,174.3 L 639.8,169.0 L 634.8,163.6 L 629.9,158.4 L 624.9,153.3 L 619.9,148.8 L 614.9,145.1 L 610.0,142.3 L 605.0,140.6 L 600.0,140.0 Z" class="wood-fill"/>
  <!-- Fill 4: niche 3 (744.3) to right edge (816.5) -->
  <path d="M 744.3,140 L 816.5,140 L 816.5,190.0 L 814.0,189.9 L 811.5,189.4 L 809.0,188.7 L 806.5,187.7 L 804.1,186.4 L 801.6,184.9 L 799.1,183.2 L 796.6,181.2 L 794.1,179.0 L 791.6,176.7 L 789.1,174.2 L 786.6,171.6 L 784.1,169.0 L 781.6,166.3 L 779.2,163.7 L 776.7,161.0 L 774.2,158.3 L 771.7,155.7 L 769.2,153.3 L 766.7,150.9 L 764.2,148.8 L 761.7,146.8 L 759.2,145.1 L 756.7,143.5 L 754.3,142.3 L 751.8,141.3 L 749.3,140.6 L 746.8,140.1 L 744.3,140.0 Z" class="wood-fill"/>

  <!-- Plant pots on inner peak fills (2 pots at peak 2 and peak 3) -->
  <circle cx="527.8" cy="160" r="6" class="pot"/>
  <circle cx="527.8" cy="152" r="8" class="plant"/>
  <circle cx="672.2" cy="160" r="6" class="pot"/>
  <circle cx="672.2" cy="152" r="8" class="plant"/>

  <!-- Wave sofa shape (single continuous path, 80 points, FLIPPED) -->
  <path d="M 383.5,190.0 L 389.0,189.3 L 394.5,187.2 L 399.9,183.9 L 405.4,179.5 L 410.9,174.2 L 416.4,168.5 L 421.9,162.5 L 427.3,156.7 L 432.8,151.4 L 438.3,146.8 L 443.8,143.3 L 449.3,141.0 L 454.8,140.0 L 460.2,140.5 L 465.7,142.4 L 471.2,145.5 L 476.7,149.7 L 482.2,154.9 L 487.6,160.6 L 493.1,166.5 L 498.6,172.3 L 504.1,177.8 L 509.6,182.5 L 515.0,186.2 L 520.5,188.7 L 526.0,189.9 L 531.5,189.7 L 537.0,188.0 L 542.4,185.1 L 547.9,181.0 L 553.4,176.0 L 558.9,170.4 L 564.4,164.5 L 569.9,158.6 L 575.3,153.1 L 580.8,148.2 L 586.3,144.3 L 591.8,141.6 L 597.3,140.2 L 602.7,140.2 L 608.2,141.6 L 613.7,144.3 L 619.2,148.2 L 624.7,153.1 L 630.1,158.6 L 635.6,164.5 L 641.1,170.4 L 646.6,176.0 L 652.1,181.0 L 657.6,185.1 L 663.0,188.0 L 668.5,189.7 L 674.0,189.9 L 679.5,188.7 L 685.0,186.2 L 690.4,182.5 L 695.9,177.8 L 701.4,172.3 L 706.9,166.5 L 712.4,160.6 L 717.8,154.9 L 723.3,149.7 L 728.8,145.5 L 734.3,142.4 L 739.8,140.5 L 745.2,140.0 L 750.7,141.0 L 756.2,143.3 L 761.7,146.8 L 767.2,151.4 L 772.7,156.7 L 778.1,162.5 L 783.6,168.5 L 789.1,174.2 L 794.6,179.5 L 800.1,183.9 L 805.5,187.2 L 811.0,189.3 L 816.5,190.0 L 816.5,240.0 L 811.0,239.3 L 805.5,237.2 L 800.1,233.9 L 794.6,229.5 L 789.1,224.2 L 783.6,218.5 L 778.1,212.5 L 772.7,206.7 L 767.2,201.4 L 761.7,196.8 L 756.2,193.3 L 750.7,191.0 L 745.2,190.0 L 739.8,190.5 L 734.3,192.4 L 728.8,195.5 L 723.3,199.7 L 717.8,204.9 L 712.4,210.6 L 706.9,216.5 L 701.4,222.3 L 695.9,227.8 L 690.4,232.5 L 685.0,236.2 L 679.5,238.7 L 674.0,239.9 L 668.5,239.7 L 663.0,238.0 L 657.6,235.1 L 652.1,231.0 L 646.6,226.0 L 641.1,220.4 L 635.6,214.5 L 630.1,208.6 L 624.7,203.1 L 619.2,198.2 L 613.7,194.3 L 608.2,191.6 L 602.7,190.2 L 597.3,190.2 L 591.8,191.6 L 586.3,194.3 L 580.8,198.2 L 575.3,203.1 L 569.9,208.6 L 564.4,214.5 L 558.9,220.4 L 553.4,226.0 L 547.9,231.0 L 542.4,235.1 L 537.0,238.0 L 531.5,239.7 L 526.0,239.9 L 520.5,238.7 L 515.0,236.2 L 509.6,232.5 L 504.1,227.8 L 498.6,222.3 L 493.1,216.5 L 487.6,210.6 L 482.2,204.9 L 476.7,199.7 L 471.2,195.5 L 465.7,192.4 L 460.2,190.5 L 454.8,190.0 L 449.3,191.0 L 443.8,193.3 L 438.3,196.8 L 432.8,201.4 L 427.3,206.7 L 421.9,212.5 L 416.4,218.5 L 410.9,224.2 L 405.4,229.5 L 399.9,233.9 L 394.5,237.2 L 389.0,239.3 L 383.5,240.0 Z" class="module-odd"/>

  <!-- Tables at NICHE centers (3 round tables, r=28 ~ diameter 56cm) -->
  <!-- At niches, front edge is at y=190. Tables at y=208 (18cm in front) -->
  <circle cx="455.7" cy="208" r="28" class="table-circle"/>
  <circle cx="600" cy="208" r="28" class="table-circle"/>
  <circle cx="744.3" cy="208" r="28" class="table-circle"/>

  <!-- Chairs (2 per table, y = 208 + 36 = 244, spacing = 28) -->
  <rect x="413.7" y="244" width="28" height="22" rx="3" class="chair-rect"/>
  <rect x="469.7" y="244" width="28" height="22" rx="3" class="chair-rect"/>
  <rect x="558" y="244" width="28" height="22" rx="3" class="chair-rect"/>
  <rect x="614" y="244" width="28" height="22" rx="3" class="chair-rect"/>
  <rect x="702.3" y="244" width="28" height="22" rx="3" class="chair-rect"/>
  <rect x="758.3" y="244" width="28" height="22" rx="3" class="chair-rect"/>

  <!-- Peak labels (peaks are far from wall, at y=190) -->
  <text x="383.5" y="202" text-anchor="middle" class="label" font-size="10" fill="#888">peak 1</text>
  <text x="527.8" y="202" text-anchor="middle" class="label" font-size="10" fill="#888">peak 2</text>
  <text x="672.2" y="202" text-anchor="middle" class="label" font-size="10" fill="#888">peak 3</text>
  <text x="816.5" y="202" text-anchor="middle" class="label" font-size="10" fill="#888">peak 4</text>

  <!-- Niche labels (niches are at wall, y=140) -->
  <text x="455.7" y="135" text-anchor="middle" class="label" font-size="10" fill="#888">niche 1</text>
  <text x="600" y="135" text-anchor="middle" class="label" font-size="10" fill="#888">niche 2</text>
  <text x="744.3" y="135" text-anchor="middle" class="label" font-size="10" fill="#888">niche 3</text>

  <!-- Fill + plant labels (on inner peak fills 2 and 3) -->
  <line x1="527.8" y1="165" x2="527.8" y2="178" stroke="#A0845A" stroke-width="0.8"/>
  <text x="527.8" y="188" text-anchor="middle" class="label" font-size="9" fill="#A0845A">curved fill + plant</text>
  <line x1="672.2" y1="165" x2="672.2" y2="178" stroke="#A0845A" stroke-width="0.8"/>
  <text x="672.2" y="188" text-anchor="middle" class="label" font-size="9" fill="#A0845A">curved fill + plant</text>

  <!-- Dimension: total length along wall -->
  <line x1="384" y1="350" x2="816" y2="350" class="dim-line" marker-start="url(#arrow-red-rev)" marker-end="url(#arrow-red)"/>
  <text x="600" y="367" text-anchor="middle" class="dim">~433 cm</text>

  <!-- Dimension: wavelength (peak to peak) -->
  <line x1="384" y1="380" x2="528" y2="380" class="dim-line" marker-start="url(#arrow-red-rev)" marker-end="url(#arrow-red)"/>
  <text x="456" y="395" text-anchor="middle" class="dim" font-size="11">~144.3 cm (wavelength)</text>

  <!-- Dimension: wave depth from wall -->
  <line x1="855" y1="141" x2="855" y2="191" class="dim-line" marker-start="url(#arrow-red-rev)" marker-end="url(#arrow-red)"/>
  <text x="875" y="170" text-anchor="start" class="dim">~50 cm</text>
  <text x="875" y="183" text-anchor="start" class="dim" font-size="10">(wave depth)</text>

  <!-- Sinusoidal label -->
  <text x="420" y="200" text-anchor="middle" class="dim" font-size="11">sinusoidal</text>

  <!-- Direction arrow -->
  <line x1="600" y1="410" x2="600" y2="435" stroke="#888" stroke-width="1.5" marker-end="url(#arrow-red)"/>
  <text x="600" y="445" text-anchor="middle" class="label" font-size="12">ROOM</text>

  <!-- ===== FRONT VIEW ===== -->
  <rect x="30" y="460" width="1140" height="290" class="section-bg"/>
  <text x="600" y="490" text-anchor="middle" class="view-label">Front View</text>

  <!--
    Front view: looking at sofa from room side.
    Width scale: 0.7 px/cm. 433cm = 303px. Centered at 600: 448 to 751.
    Height scale: 0.8 px/cm. Floor at y=720.
    Base top (43cm): y = 720-34 = 686
    Cushion top (~51cm): y = 720-41 = 679
    Back top (83cm): y = 720-66 = 654
    Continuous form — no module separation lines
  -->

  <!-- Floor line -->
  <line x1="370" y1="720" x2="830" y2="720" class="floor"/>
  <text x="365" y="723" text-anchor="end" class="label" font-size="11">floor</text>

  <!-- Continuous base -->
  <rect x="448" y="686" width="300" height="34" class="base"/>

  <!-- Continuous seat cushion -->
  <rect x="448" y="679" width="300" height="8" class="cushion-seat"/>

  <!-- Continuous back cushion -->
  <rect x="448" y="658" width="300" height="22" class="cushion-back"/>

  <!-- Back cap (continuous across all) -->
  <rect x="448" y="654" width="300" height="4" class="cushion-seat"/>

  <!-- Dimension: total back height from floor (83cm) -->
  <line x1="425" y1="654" x2="425" y2="720" class="dim-line" marker-start="url(#arrow-red-rev)" marker-end="url(#arrow-red)"/>
  <text x="410" y="690" text-anchor="end" class="dim">83 cm</text>

  <!-- Dimension: seat height (base 43cm) -->
  <line x1="770" y1="686" x2="770" y2="720" class="dim-line" marker-start="url(#arrow-red-rev)" marker-end="url(#arrow-red)"/>
  <text x="785" y="707" text-anchor="start" class="dim">43 cm</text>
  <text x="785" y="719" text-anchor="start" class="dim" font-size="10">(base)</text>

  <!-- Dimension: cushion 8cm -->
  <line x1="770" y1="679" x2="770" y2="686" class="dim-line" marker-start="url(#arrow-red-rev)" marker-end="url(#arrow-red)"/>
  <text x="785" y="685" text-anchor="start" class="dim" font-size="10">8cm</text>

  <!-- Dimension: back from seat to top (32cm) -->
  <line x1="770" y1="654" x2="770" y2="679" class="dim-line" marker-start="url(#arrow-red-rev)" marker-end="url(#arrow-red)"/>
  <text x="785" y="671" text-anchor="start" class="dim">32 cm</text>
  <text x="785" y="683" text-anchor="start" class="dim" font-size="10">(back)</text>

  <!-- Dimension: total width -->
  <line x1="448" y1="644" x2="748" y2="644" class="dim-line" marker-start="url(#arrow-red-rev)" marker-end="url(#arrow-red)"/>
  <text x="598" y="639" text-anchor="middle" class="dim">~433 cm</text>

  <!-- ===== SIDE SECTION ===== -->
  <rect x="30" y="765" width="1140" height="310" class="section-bg"/>
  <text x="600" y="795" text-anchor="middle" class="view-label">Side Section (Cross-Section Through Wave)</text>

  <!--
    Side view scale: 1.3 px/cm
    Origin: x=450 (front of seat), y=1040 (floor)
    Base 43cm=56px, Seat 8cm=10px, Back 83cm=108px total
  -->

  <!-- Floor line -->
  <line x1="350" y1="1040" x2="850" y2="1040" class="floor"/>
  <text x="345" y="1043" text-anchor="end" class="label" font-size="11">floor</text>

  <!-- Closed base structure -->
  <rect x="450" y="984" width="195" height="56" class="base"/>
  <text x="547" y="1018" text-anchor="middle" class="label" font-size="11">Closed Base</text>
  <text x="547" y="1033" text-anchor="middle" class="label" font-size="10">(18mm Birch Plywood)</text>

  <!-- Base inner void (storage possible) -->
  <rect x="460" y="994" width="175" height="36" fill="#E8DCC8" stroke="#B0A080" stroke-width="0.5" stroke-dasharray="3,2"/>
  <text x="547" y="1016" text-anchor="middle" class="label" font-size="9" fill="#888">void / storage</text>

  <!-- Seat platform (plywood) -->
  <rect x="450" y="978" width="195" height="7" class="structure"/>
  <text x="660" y="985" text-anchor="start" class="label" font-size="10">18mm plywood</text>

  <!-- Seat cushion (8cm = 10px) -->
  <rect x="450" y="967" width="195" height="12" rx="2" class="cushion-seat"/>
  <text x="547" y="977" text-anchor="middle" class="label" font-size="10">Foam 8cm (5+3 layers)</text>

  <!-- Back structure (plywood, angled ~5deg) -->
  <polygon points="632,978 645,978 642,888 629,888" class="structure"/>

  <!-- Back cushion (in front of back structure) -->
  <polygon points="622,978 632,978 629,888 619,888" rx="2" class="cushion-back"/>
  <text x="614" y="938" text-anchor="end" class="label" font-size="10" transform="rotate(-85, 614, 938)">Back foam 5cm</text>

  <!-- Back cap -->
  <rect x="618" y="882" width="28" height="6" rx="1" class="cushion-seat"/>

  <!-- Wall indication -->
  <line x1="660" y1="875" x2="660" y2="1040" stroke="#555" stroke-width="3"/>
  <text x="670" y="955" text-anchor="start" class="label" font-size="11">WALL</text>

  <!-- Curved fill (visible in side section at peak) -->
  <polygon points="660,1040 660,882 635,882" fill="#D4A574" fill-opacity="0.4" stroke="#A0845A" stroke-width="1" stroke-dasharray="4,2"/>
  <text x="655" y="970" text-anchor="end" class="label" font-size="9" fill="#A0845A" transform="rotate(-70, 655, 970)">curved fill (at peak)</text>

  <!-- Sky upholstery indication -->
  <line x1="450" y1="967" x2="450" y2="1040" stroke="#6B5B3E" stroke-width="2.5"/>
  <line x1="450" y1="967" x2="622" y2="967" stroke="#6B5B3E" stroke-width="2"/>
  <line x1="619" y1="882" x2="645" y2="882" stroke="#6B5B3E" stroke-width="2"/>
  <text x="440" y="1005" text-anchor="end" class="label" font-size="10">Sky wrap</text>

  <!-- Dimension: base height 43cm -->
  <line x1="420" y1="984" x2="420" y2="1040" class="dim-line" marker-start="url(#arrow-red-rev)" marker-end="url(#arrow-red)"/>
  <text x="405" y="1016" text-anchor="end" class="dim">43 cm</text>

  <!-- Dimension: total height 83cm -->
  <line x1="400" y1="882" x2="400" y2="1040" class="dim-line" marker-start="url(#arrow-red-rev)" marker-end="url(#arrow-red)"/>
  <text x="385" y="965" text-anchor="end" class="dim">83 cm</text>

  <!-- Dimension: seat depth 50cm -->
  <line x1="450" y1="1055" x2="645" y2="1055" class="dim-line" marker-start="url(#arrow-red-rev)" marker-end="url(#arrow-red)"/>
  <text x="547" y="1070" text-anchor="middle" class="dim">50 cm</text>

  <!-- Dimension: cushion thickness 8cm -->
  <line x1="680" y1="967" x2="680" y2="978" class="dim-line" marker-start="url(#arrow-red-rev)" marker-end="url(#arrow-red)"/>
  <text x="695" y="977" text-anchor="start" class="dim" font-size="10">8cm</text>

  <!-- Dimension: back height from seat 32cm -->
  <line x1="610" y1="882" x2="610" y2="967" class="dim-line" marker-start="url(#arrow-red-rev)" marker-end="url(#arrow-red)"/>
  <text x="595" y="930" text-anchor="end" class="dim" font-size="11">32 cm</text>

  <!-- Sitting person silhouette -->
  <circle cx="520" cy="930" r="12" fill="none" stroke="#AAA" stroke-width="1.5"/>
  <line x1="520" y1="942" x2="520" y2="965" stroke="#AAA" stroke-width="1.5"/>
  <line x1="520" y1="965" x2="490" y2="978" stroke="#AAA" stroke-width="1.5"/>
  <line x1="520" y1="950" x2="540" y2="940" stroke="#AAA" stroke-width="1.5"/>

  <!-- ===== KEY SPECS ===== -->
  <rect x="30" y="1090" width="1140" height="360" class="section-bg"/>
  <text x="600" y="1120" text-anchor="middle" class="view-label">Key Specs</text>

  <text x="100" y="1150" text-anchor="start" class="label" font-size="13">STRUCTURE:</text>
  <text x="100" y="1170" text-anchor="start" class="label" font-size="12">  Frame: 18mm Birch Plywood (all internal structure)</text>
  <text x="100" y="1188" text-anchor="start" class="label" font-size="12">  Reinforcement: Steel L-brackets at all joints + wood glue D3</text>
  <text x="100" y="1206" text-anchor="start" class="label" font-size="12">  Continuous curved form: CNC-cut plywood ribs following sinusoidal profile</text>

  <text x="100" y="1235" text-anchor="start" class="label" font-size="13">UPHOLSTERY:</text>
  <text x="100" y="1253" text-anchor="start" class="label" font-size="12">  Seat foam: 8cm dual-layer (5cm HD35 + 3cm soft top)</text>
  <text x="100" y="1271" text-anchor="start" class="label" font-size="12">  Back foam: 5cm HD30</text>
  <text x="100" y="1289" text-anchor="start" class="label" font-size="12">  Cover: Sky 1.0-1.2mm, UV-resistant, stapled to plywood frame</text>

  <text x="100" y="1318" text-anchor="start" class="label" font-size="13">EXTRAS:</text>
  <text x="100" y="1336" text-anchor="start" class="label" font-size="12">  4x Curved wood fills (birch plywood, sinusoidal) between sofa back and wall</text>
  <text x="100" y="1354" text-anchor="start" class="label" font-size="12">  2x Plant pots on wood fills (at peak 2 and peak 3)</text>
  <text x="100" y="1372" text-anchor="start" class="label" font-size="12">  3x Round cafe tables (diameter 56cm) at niche positions</text>
  <text x="100" y="1390" text-anchor="start" class="label" font-size="12">  6x Chairs (2 per table, facing sofa)</text>

  <text x="650" y="1150" text-anchor="start" class="label" font-size="13">DIMENSIONS:</text>
  <text x="650" y="1170" text-anchor="start" class="label" font-size="12">  Total length (along wall): ~433 cm</text>
  <text x="650" y="1188" text-anchor="start" class="label" font-size="12">  Wave depth (peak to niche): ~50 cm</text>
  <text x="650" y="1206" text-anchor="start" class="label" font-size="12">  Form: continuous sinusoidal (3 concave niches + 4 peaks)</text>
  <text x="650" y="1224" text-anchor="start" class="label" font-size="12">  Wavelength: ~144.3 cm</text>
  <text x="650" y="1242" text-anchor="start" class="label" font-size="12">  Wave amplitude: 25 cm (50 cm total depth)</text>
  <text x="650" y="1260" text-anchor="start" class="label" font-size="12">  Wave periods: 3 full cycles</text>
  <text x="650" y="1278" text-anchor="start" class="label" font-size="12">  Base height: 43 cm</text>
  <text x="650" y="1296" text-anchor="start" class="label" font-size="12">  Seat cushion: 8 cm (seat surface at ~51 cm)</text>
  <text x="650" y="1314" text-anchor="start" class="label" font-size="12">  Back height from floor: 83 cm</text>
  <text x="650" y="1332" text-anchor="start" class="label" font-size="12">  Back height from seat: 32 cm</text>
  <text x="650" y="1350" text-anchor="start" class="label" font-size="12">  Seat depth: 50 cm</text>
  <text x="650" y="1368" text-anchor="start" class="label" font-size="12">  Seats: ~12 people</text>

</svg>
